HIERARCHY
ROOT pelvis
{
  OFFSET 0 100 0
  CHANNELS 6 Xposition Yposition Zposition Zrotation Xrotation Yrotation
  JOINT pelvis_right_femur
  {
    OFFSET -10.78128 -3.44521 -0.5502486
    CHANNELS 3 Zrotation Xrotation Yrotation
    JOINT right_femur_tibia
    {
      OFFSET -0.8047443 -44.0398 -0.1307829
      CHANNELS 3 Zrotation Xrotation Yrotation
      JOINT right_tibia_foot
      {
        OFFSET 3.006224 -47.83518 -5
        CHANNELS 3 Zrotation Xrotation Yrotation
        End Site
        {
          OFFSET 0 -5 15
        }
      }
    }
  }
  JOINT pelvis_left_femur
  {
    OFFSET 10.78128 -3.44521 -0.5502486
    CHANNELS 3 Zrotation Xrotation Yrotation
    JOINT left_femur_tibia
    {
      OFFSET 0.8047443 -44.0398 -0.1307829
      CHANNELS 3 Zrotation Xrotation Yrotation
      JOINT left_tibia_foot
      {
        OFFSET -4.370144 -48.10324 -4.275266
        CHANNELS 3 Zrotation Xrotation Yrotation
        End Site
        {
          OFFSET 0 -5 15
        }
      }
    }
  }
  JOINT pelvis_spine1
  {
    OFFSET 0 6.468898 -3.129235
    CHANNELS 3 Zrotation Xrotation Yrotation
    JOINT spine1
    {
      OFFSET 0 23.15396 4.99043
      CHANNELS 3 Zrotation Xrotation Yrotation
      JOINT spine2
      {
        OFFSET 0 20.79997 -5.064912
        CHANNELS 3 Zrotation Xrotation Yrotation
        JOINT neck
        {
          OFFSET 0 14.38658 9.616178
          CHANNELS 3 Zrotation Xrotation Yrotation
          End Site
          {
            OFFSET 0 20 0
          }
        }
      }
      JOINT right_manubrium
      {
        OFFSET -5.722621 16.35077 3.967754
        CHANNELS 3 Zrotation Xrotation Yrotation
        JOINT right_clavicle
        {
          OFFSET -13.16364 1.694482 -4.693211
          CHANNELS 3 Zrotation Xrotation Yrotation
          JOINT right_humerus
          {
            OFFSET -28.5034 -0.3100689 -2.792744
            CHANNELS 3 Zrotation Xrotation Yrotation
            JOINT right_radius
            {
              OFFSET -25.15693 0.02248979 -1.271978
              CHANNELS 3 Zrotation Xrotation Yrotation
              End Site
              {
                OFFSET -15 0 0
              }
            }
          }
        }
      }
      JOINT left_manubrium
      {
        OFFSET 5.722621 16.35077 3.967754
        CHANNELS 3 Zrotation Xrotation Yrotation
        JOINT left_clavicle
        {
          OFFSET 13.16364 1.694482 -4.693211
          CHANNELS 3 Zrotation Xrotation Yrotation
          JOINT left_humerus
          {
            OFFSET 29.39168 -1.063119 -2.237045
            CHANNELS 3 Zrotation Xrotation Yrotation
            JOINT left_radius
            {
              OFFSET 24.59957 -0.9528479 0.9047498
              CHANNELS 3 Zrotation Xrotation Yrotation
              End Site
              {
                OFFSET 15 -0 -0
              }
            }
          }
        }
      }
    }
  }
}
MOTION
Frames: 17
Frame Time: 0.0416666666667
0 103.5113 0 2.365778 -0.1846932 0.1186321 3.217311 -15.0493 11.29685 -0 37.38386 -0 -4.958076 -17.61515 -3.697008 -8.603668 9.216241 -21.43458 -0 5.170787 -0 22.01461 -10.0202 29.79529 -2.037048 -2.829905 5.618844 2.461949 10.75749 -7.778309 1.834088 20.99288 5.616146 2.913999 -25.58547 9.074594 5.02753 -19.84223 10.65555 88.16929 35.86683 -21.11133 -0 0 14.59678 -6.911302 8.505481 2.558483 6.663632 -21.63769 -1.950873 -92.74882 22.59973 21.12161 0 0 -16.74222 14.19051 14.79733 -1.806673
0.3848296 103.3601 1.620976 1.824355 0.6298017 0.1695459 4.309484 -17.53168 11.92166 -0 37.70626 -0 -5.12482 -16.43048 -3.502116 -8.34878 8.879162 -21.11876 -0 5.707407 -0 22.40619 -10.35177 29.96921 -1.895884 -2.500933 5.490086 2.585394 10.60616 -7.827068 1.702194 20.84445 5.867354 3.102443 -25.85993 9.026383 4.876279 -19.55161 10.69669 88.16038 35.70731 -21.0722 -0 0 14.1913 -7.294616 8.709313 2.803305 6.718005 -21.7066 -1.877436 -92.23202 22.12602 20.32736 0 0 -17.31732 14.11115 14.20285 -2.107353
0.6842206 103.1387 3.450819 1.217694 0.7961539 0.2542219 4.81264 -19.92614 9.957521 -0 35.81331 -0 -5.886726 -14.4851 -2.672318 -7.83069 9.858248 -21.12996 -0 6.160948 -0 18.25204 -13.52095 28.74403 -1.747382 -2.27539 5.449582 2.631448 10.5171 -7.743743 1.643392 20.86181 5.945371 3.184743 -25.87102 8.926805 4.966098 -19.26806 10.69563 87.97851 35.55259 -21.05167 -0 0 13.79836 -7.382903 8.862579 3.104055 6.579086 -21.63941 -2.025906 -92.20115 22.49067 20.24143 0 0 -17.69919 13.4873 13.91717 -1.212727
0.942716 102.8892 5.468861 0.6388984 1.201633 0.3339605 5.538596 -22.4392 9.190218 -0 34.49409 -0 -6.365692 -12.78748 -2.208668 -7.379275 10.32113 -20.89753 -0 6.688478 -0 15.97405 -15.45331 27.8651 -1.556895 -1.966453 5.45636 2.645921 10.46146 -7.646563 1.554708 20.85215 6.040254 3.315567 -25.84684 8.764475 4.942918 -18.99937 10.68491 87.87063 35.43038 -20.98587 -0 0 13.37755 -7.627719 9.013494 3.384439 6.483217 -21.6636 -2.202737 -91.97085 22.51314 19.95099 0 0 -18.23104 13.10752 13.40964 -0.722302
1.167101 102.5494 7.792095 0.06849192 1.427279 0.4287933 6.154266 -25.21023 7.828032 -0 32.09003 -0 -7.132471 -10.61172 -1.544696 -6.866879 10.98645 -20.30558 -0 7.576748 -0 13.63273 -17.44628 26.4887 -1.369642 -1.680368 5.486643 2.632433 10.41326 -7.521506 1.480031 20.86933 6.105302 3.428333 -25.75752 8.589452 4.95748 -18.74687 10.67156 87.70159 35.31694 -20.87054 -0 0 13.00324 -7.869902 9.164156 3.69927 6.362738 -21.66032 -2.390097 -91.82272 22.66721 19.79912 0 0 -18.69015 12.63551 12.96865 -0.02402513
1.371973 102.1319 10.46632 -0.4594724 1.742031 0.5533165 6.735822 -27.93829 6.666006 -0 29.40015 -0 -7.851967 -8.442277 -0.9432578 -6.392175 11.58524 -19.54818 -0 8.661912 -0 11.67695 -19.0407 24.95655 -1.182076 -1.397916 5.549985 2.586388 10.38133 -7.378004 1.406528 20.8893 6.15892 3.54549 -25.61405 8.392989 4.957967 -18.52739 10.65554 87.50771 35.22598 -20.69049 -0 0 12.68957 -8.170249 9.310566 4.022524 6.256285 -21.67203 -2.571682 -91.66795 22.76606 19.67656 0 0 -19.11779 12.21708 12.51887 0.6245775
1.566895 101.6492 13.5787 -0.9317927 2.087605 0.7335539 7.207753 -30.47442 5.431158 -0 26.21451 -0 -8.615161 -6.175844 -0.3074297 -5.953265 12.20025 -18.55009 -0 10.22638 -0 9.87116 -20.21678 23.06526 -0.9941689 -1.12483 5.641666 2.508828 10.35363 -7.212358 1.336768 20.91657 6.203282 3.663578 -25.41603 8.180868 4.964279 -18.33213 10.63936 87.2591 35.14889 -20.43527 -0 0 12.44007 -8.524816 9.464697 4.37896 6.154894 -21.6807 -2.737739 -91.54094 22.88118 19.62431 0 0 -19.49398 11.783 12.09111 1.335467
1.760547 101.1596 17.19529 -1.359839 2.496305 0.9924175 7.608198 -32.50765 4.343512 -0 22.98296 -0 -9.315521 -4.005509 0.2618913 -5.547534 12.76363 -17.41849 -0 12.43945 -0 8.013447 -20.80509 20.81699 -0.8068825 -0.8606663 5.766294 2.395862 10.3302 -7.024401 1.268231 20.94573 6.243535 3.788275 -25.16162 7.951637 4.968023 -18.16837 10.62358 86.95135 35.08822 -20.08905 -0 0 12.27087 -8.953588 9.62749 4.76923 6.069018 -21.69345 -2.878781 -91.43094 22.97705 19.6314 0 0 -19.81617 11.35796 11.67672 2.065512
1.959826 100.7552 21.37808 -1.770864 2.909384 1.33637 7.985033 -33.71798 3.478476 -0 20.07164 -0 -9.933208 -2.029988 0.7187456 -5.137027 13.20051 -16.1758 -0 15.67142 -0 5.898804 -20.57485 18.1568 -0.6215578 -0.6067572 5.924181 2.245778 10.30499 -6.812954 1.2003 20.97496 6.284103 3.92104 -24.85047 7.707073 4.970375 -18.03766 10.61034 86.5683 35.04126 -19.63358 -0 0 12.19473 -9.472548 9.805266 5.207594 6.000739 -21.70572 -2.982672 -91.34302 23.05988 19.70579 0 0 -20.07363 10.92567 11.28229 2.834784
2.170321 100.557 26.15799 -2.207358 3.248444 1.740306 8.422587 -33.80108 2.98748 -0 17.94014 -0 -10.42738 -0.4216838 0.9825475 -4.660473 13.3373 -14.87952 -0 20.26118 -0 3.391949 -19.27996 15.15773 -0.4425526 -0.3660578 6.116945 2.056563 10.27484 -6.578096 1.13227 21.00124 6.32842 4.063117 -24.48245 7.448836 4.967828 -17.94729 10.60162 86.09803 35.00688 -19.04822 -0 0 12.23092 -10.09982 9.999807 5.702823 5.954777 -21.7155 -3.037262 -91.27637 23.11687 19.84896 0 0 -20.25282 10.48743 10.91076 3.632825
2.39563 100.6851 31.51309 -2.690597 3.398688 2.132022 8.951812 -32.52333 2.93271 -0 16.85543 -0 -10.78226 0.627847 1.00322 -4.061371 12.88809 -13.57484 -0 26.48588 -0 0.5537655 -16.73483 12.05216 -0.2766898 -0.1427473 6.344049 1.828184 10.23577 -6.32099 1.064362 21.02263 6.378579 4.212791 -24.06022 7.180523 4.957427 -17.90523 10.60021 85.52826 34.98189 -18.31149 -0 0 12.39904 -10.85216 10.21208 6.265994 5.932332 -21.71605 -3.030119 -91.23204 23.14236 20.06439 0 0 -20.33602 10.03623 10.5684 4.457556
2.63604 101.2148 37.33407 -3.17219 3.238035 2.389978 9.468302 -29.78858 3.224946 -0 16.69458 -0 -11.00014 0.8923678 0.7729557 -3.341089 11.46588 -12.33052 -0 34.33581 -0 -2.333417 -13.03925 9.26305 -0.1341823 0.05745776 6.603193 1.563177 10.18551 -6.044564 0.9976658 21.03802 6.434252 4.365256 -23.58975 6.907302 4.935009 -17.92178 10.60908 84.85124 34.96138 -17.40431 -0 0 12.71876 -11.74173 10.43898 6.904897 5.931549 -21.69776 -2.951738 -91.20997 23.12849 20.35339 0 0 -20.30242 9.567227 10.26116 5.298554
2.885452 102.1341 43.40544 -3.483875 2.658754 2.372702 9.69682 -25.66841 3.570142 -0 16.81464 -0 -11.12114 0.1714493 0.3479447 -2.625148 8.694673 -11.22839 -0 43.32558 -0 -4.827595 -8.800257 7.29233 -0.02802661 0.2281522 6.889021 1.267977 10.12342 -5.753777 0.934415 21.04808 6.492049 4.51161 -23.08161 6.636311 4.896371 -18.00745 10.63144 84.06596 34.93743 -16.31455 -0 0 13.20475 -12.77236 10.67372 7.623728 5.944923 -21.64674 -2.798088 -91.20992 23.07151 20.71541 0 0 -20.13048 9.07243 9.994406 6.145135
3.127722 103.3378 49.43921 -3.35694 1.617859 2.000418 9.309158 -20.41228 3.583675 -0 16.28815 -0 -11.21457 -1.563937 -0.1618975 -2.167447 4.434122 -10.32037 -0 52.34763 -0 -6.479112 -5.136695 6.507025 0.02725513 0.3632086 7.192846 0.9535583 10.05173 -5.455707 0.8778632 21.05547 6.545187 4.639132 -22.55112 6.376198 4.83791 -18.17096 10.67024 83.18194 34.89863 -15.04312 -0 0 13.86181 -13.93526 10.90557 8.419852 5.958657 -21.54614 -2.574061 -91.23108 22.97186 21.14644 0 0 -19.80192 8.542564 9.770518 6.985366
3.337355 104.6701 55.18634 -2.591652 0.2104953 1.351868 8.19749 -14.45083 3.073159 -0 14.56545 -0 -11.30315 -3.936491 -0.6147104 -2.166788 -1.025686 -9.529785 -0 59.76277 -0 -7.002082 -3.138494 6.938099 0.0182275 0.4582894 7.502763 0.6351616 9.975718 -5.159208 0.8319099 21.06474 6.584233 4.732603 -22.01733 6.13634 4.757831 -18.41623 10.72778 82.22162 34.83041 -13.60982 -0 0 14.67957 -15.20671 11.12188 9.282164 5.953209 -21.3786 -2.295277 -91.27217 22.83627 21.6384 0 0 -19.30704 7.966817 9.587311 7.810047
3.4866 105.9651 60.56362 -1.320049 -1.289671 0.6481687 6.695112 -8.389314 2.277741 -0 12.02083 -0 -11.24406 -6.153471 -0.863825 -2.429953 -7.050106 -8.599498 -0 63.75954 -0 -6.478533 -3.006783 8.270853 -0.06416115 0.5121961 7.804803 0.330609 9.903419 -4.874128 0.8003588 21.08139 6.59902 4.777109 -21.50048 5.925544 4.657196 -18.7395 10.80524 81.22061 34.71675 -12.05688 -0 0 15.62961 -16.5489 11.31123 10.19035 5.906556 -21.13047 -1.987416 -91.33133 22.67714 22.17845 0 0 -18.65007 7.335039 9.437149 8.614526
3.560034 107.0196 65.66706 -0.05963217 -2.566061 0.06845731 5.431798 -2.819756 1.684857 -0 9.585228 -0 -10.7808 -7.637782 -0.8482306 -2.312759 -12.97391 -7.261681 -0 62.87452 -0 -5.44046 -3.8776 10.08922 -0.2216007 0.5275411 8.084898 0.05736456 9.844337 -4.610207 0.7860563 21.11032 6.581406 4.761548 -21.01833 5.75069 4.540428 -19.12788 10.90234 80.22449 34.54329 -10.44748 -0 0 16.66681 -17.91508 11.46733 11.11653 5.799523 -20.79637 -1.682145 -91.40591 22.51044 22.74918 0 0 -17.85239 6.640482 9.307882 9.399592
